{"title":"Zeitgeist: Moving Forward [russian dub]","uid":6145851,"size":1134408222,"categoryP":"video","categoryS":"movies","magnet":"?xt=urn:btih:b9ca9cae0b449577fa7e9b26391401ad02a65393&amp;dn=Zeitgeist%3A+Moving+Forward+%5Brussian+dub%5D&amp;tr=udp%3A%2F%2Ftracker.openbittorrent.com%3A80&amp;tr=udp%3A%2F%2Fopen.demonii.com%3A1337&amp;tr=udp%3A%2F%2Ftracker.coppersurfer.tk%3A6969&amp;tr=udp%3A%2F%2Fexodus.desync.com%3A6969","seeders":1,"leechers":0,"uploader":"nekodayo","files":-1,"time":1296671638,"description":"On Jan. 15th, 2011, \\\\\\&quot;Zeitgeist: Moving Forward\\\\\\&quot; was released theatrically to sold out crowds in 60 countries; 31 languages; 295 cities and 341 Venues. It has been noted as the largest non-profit independent film release in history. \n\nThis is a non-commercial work and is available online for free viewing and no restrictions apply to uploading/download/posting/linking - as long as no money is exchanged. \n\nA Free DVD Torrent of the full 2 hr and 42 min film in 30 languages is also made available through the main website [below], with instructions on how one can download and burn the movie to DVD themselves. His other films are also freely available in this format.\n\nWebsite:\nwww.zeitgeistmovingforward.com\nwww.zeitgeistmovie.com\n\nRelease Map:  &lt;a href=&quot;\nhttp://zeitgeistmovingforward.com/zmap&quot; rel=&quot;nofollow&quot; target=&quot;_NEW&quot;&gt;\nhttp://zeitgeistmovingforward.com/zmap&lt;/a&gt;\n\n$5 DVD:   &lt;a href=&quot;\nhttp://zeitgeistmovingforward.com/dvd&quot; rel=&quot;nofollow&quot; target=&quot;_NEW&quot;&gt;\nhttp://zeitgeistmovingforward.com/dvd&lt;/a&gt;\n\nMovement:\nwww.thezeitgeistmovement.com    \n\n\nInfo:\n\nZeitgeist III Moving Forward 2011.mp4\n\nFormat                           : MPEG-4\nFormat profile                   : Base Media\nCodec ID                         : isom\nFile size                        : 1.06 GiB\nDuration                         : 2h 41mn\nOverall bit rate                 : 936 Kbps\nEncoded date                     : UTC 1970-01-01 00:00:00\nTagged date                      : UTC 1970-01-01 00:00:00\nWriting application              : Lavf52.40.0\n\nVideo\nID                               : 1\nFormat                           : AVC\nFormat/Info                      : Advanced Video Codec\nFormat profile                   : &lt;a class=&quot;__cf_email__&quot; href=&quot;/cdn-cgi/l/email-protection&quot; data-cfemail=&quot;9ed6f7f9f6ded2adb0ae&quot;&gt;[email&amp;#160;protected]&lt;/a&gt;&lt;script cf-hash='f9e31' type=&quot;text/javascript&quot;&gt;\n/* &lt;![CDATA[ */!function(){try{var t=&quot;currentScript&quot;in document?document.currentScript:function(){for(var t=document.getElementsByTagName(&quot;script&quot;),e=t.length;e--;)if(t[e].getAttribute(&quot;cf-hash&quot;))return t[e]}();if(t&amp;&amp;t.previousSibling){var e,r,n,i,c=t.previousSibling,a=c.getAttribute(&quot;data-cfemail&quot;);if(a){for(e=&quot;&quot;,r=parseInt(a.substr(0,2),16),n=2;a.length-n;n+=2)i=parseInt(a.substr(n,2),16)^r,e+=String.fromCharCode(i);e=document.createTextNode(e),c.parentNode.replaceChild(e,c)}}}catch(u){}}();/* ]]&gt; */&lt;/script&gt;\nFormat settings, CABAC           : Yes\nFormat settings, ReFrames        : 3 frames\nCodec ID                         : avc1\nCodec ID/Info                    : Advanced Video Coding\nDuration                         : 2h 41mn\nBit rate mode                    : Variable\nBit rate                         : 800 Kbps\nWidth                            : 854 pixels\nHeight                           : 478 pixels\nDisplay aspect ratio             : 16:9\nFrame rate mode                  : Variable\nFrame rate                       : 24.952 fps\nMinimum frame rate               : 4.167 fps\nMaximum frame rate               : 25.000 fps\nOriginal frame rate              : 25.000 fps\nResolution                       : 24 bits\nColorimetry                      : 4:2:0\nScan type                        : Progressive\nBits/(Pixel*Frame)               : 0.079\nStream size                      : 929 MiB (86%)\nWriting library                  : x264 core 79\n\nLanguage                         : Russian\n\nAudio\nID                               : 2\nFormat                           : AAC\nFormat/Info                      : Advanced Audio Codec\nFormat version                   : Version 4\nFormat profile                   : LC\nFormat settings, SBR             : No\nCodec ID                         : 40\nDuration                         : 2h 41mn\nBit rate mode                    : Variable\nBit rate                         : 127 Kbps\nChannel(s)                       : 2 channels\nChannel positions                : L R\nSampling rate                    : 44.1 KHz\nResolution                       : 16 bits\nStream size                      : 147 MiB (14%)\nLanguage                         : Russian","torrent":{"xt":"urn:btih:b9ca9cae0b449577fa7e9b26391401ad02a65393","amp;dn":"Zeitgeist%3A+Moving+Forward+%5Brussian+dub%5D","amp;tr":["udp%3A%2F%2Ftracker.openbittorrent.com%3A80","udp%3A%2F%2Fopen.demonii.com%3A1337","udp%3A%2F%2Ftracker.coppersurfer.tk%3A6969","udp%3A%2F%2Fexodus.desync.com%3A6969"],"infoHash":"b9ca9cae0b449577fa7e9b26391401ad02a65393","infoHashBuffer":{"type":"Buffer","data":[185,202,156,174,11,68,149,119,250,126,155,38,57,20,1,173,2,166,83,147]},"announce":[],"urlList":[]}}